<svg class="dv-edges" data-edges="" xmlns="http://www.w3.org/2000/svg" width="2880" height="2829" viewBox="0 0 2880 2829">
<g class="dv-edge-group" data-edge-id="0" data-from-table="auth.users" data-to-table="auth.credentials" data-from-column="auth.users.id" data-to-column="auth.credentials.user_id">
<path d="M 2612 2042 H 2618 A 6 6 0 0 1 2624 2048 V 2127 A 4 4 0 0 0 2628 2131 H 2632" class="dv-edge-hit">
</path>
<path d="M 2612 2042 H 2618 A 6 6 0 0 1 2624 2048 V 2127 A 4 4 0 0 0 2628 2131 H 2632" class="dv-edge">
</path>
<circle cx="2607" cy="2042" r="3" class="dv-marker dv-marker-one">
</circle>
<polygon points="2632,2131 2623,2127 2623,2135" class="dv-arrow">
</polygon>
</g>
<g class="dv-edge-group" data-edge-id="1" data-from-table="auth.sessions" data-to-table="auth.users" data-from-column="auth.sessions.user_id" data-to-column="auth.users.id">
<path d="M 2292 2037 H 2306 A 6 6 0 0 0 2318 2037 H 2354 A 6 6 0 0 0 2366 2037 H 2406 A 2 2 0 0 1 2408 2039 V 2040 A 2 2 0 0 0 2410 2042 H 2412" class="dv-edge-hit">
</path>
<path d="M 2292 2037 H 2306 A 6 6 0 0 0 2318 2037 H 2354 A 6 6 0 0 0 2366 2037 H 2406 A 2 2 0 0 1 2408 2039 V 2040 A 2 2 0 0 0 2410 2042 H 2412" class="dv-edge">
</path>
<polygon points="2292,2037 2282,2032 2282,2042" class="dv-marker dv-marker-many">
</polygon>
<polygon points="2412,2042 2403,2038 2403,2046" class="dv-arrow">
</polygon>
</g>
<g class="dv-edge-group" data-edge-id="2" data-from-table="auth.api_keys" data-to-table="auth.users" data-from-column="auth.api_keys.user_id" data-to-column="auth.users.id">
<path d="M 2292 1684 H 2306 A 6 6 0 0 0 2318 1684 H 2352 A 8 8 0 0 1 2360 1692 V 2034 A 8 8 0 0 0 2368 2042 H 2412" class="dv-edge-hit">
</path>
<path d="M 2292 1684 H 2306 A 6 6 0 0 0 2318 1684 H 2352 A 8 8 0 0 1 2360 1692 V 2034 A 8 8 0 0 0 2368 2042 H 2412" class="dv-edge">
</path>
<polygon points="2292,1684 2282,1679 2282,1689" class="dv-marker dv-marker-many">
</polygon>
<polygon points="2412,2042 2403,2038 2403,2046" class="dv-arrow">
</polygon>
</g>
<g class="dv-edge-group" data-edge-id="3" data-from-table="auth.user_roles" data-to-table="auth.users" data-from-column="auth.user_roles.user_id" data-to-column="auth.users.id">
<path d="M 2292 1489 H 2304 A 8 8 0 0 1 2312 1497 V 2034 A 8 8 0 0 0 2320 2042 H 2412" class="dv-edge-hit">
</path>
<path d="M 2292 1489 H 2304 A 8 8 0 0 1 2312 1497 V 2034 A 8 8 0 0 0 2320 2042 H 2412" class="dv-edge">
</path>
<polygon points="2292,1489 2282,1484 2282,1494" class="dv-marker dv-marker-many">
</polygon>
<polygon points="2412,2042 2403,2038 2403,2046" class="dv-arrow">
</polygon>
</g>
<g class="dv-edge-group" data-edge-id="4" data-from-table="auth.user_roles" data-to-table="auth.roles" data-from-column="auth.user_roles.role_id" data-to-column="auth.roles.id">
<path d="M 2292 1515 H 2306 A 6 6 0 0 0 2318 1515 H 2400 A 8 8 0 0 1 2408 1523 V 1896 A 2 2 0 0 0 2410 1898 H 2412" class="dv-edge-hit">
</path>
<path d="M 2292 1515 H 2306 A 6 6 0 0 0 2318 1515 H 2400 A 8 8 0 0 1 2408 1523 V 1896 A 2 2 0 0 0 2410 1898 H 2412" class="dv-edge">
</path>
<polygon points="2292,1515 2282,1510 2282,1520" class="dv-marker dv-marker-many">
</polygon>
<polygon points="2412,1898 2403,1894 2403,1902" class="dv-arrow">
</polygon>
</g>
<g class="dv-edge-group" data-edge-id="5" data-from-table="auth.user_roles" data-to-table="auth.users" data-from-column="auth.user_roles.granted_by" data-to-column="auth.users.id">
<path d="M 2292 1540 H 2306 A 6 6 0 0 0 2318 1540 H 2402 A 6 6 0 0 0 2414 1540 H 2616 A 8 8 0 0 1 2624 1548 V 2034 A 8 8 0 0 1 2616 2042 H 2412" class="dv-edge-hit">
</path>
<path d="M 2292 1540 H 2306 A 6 6 0 0 0 2318 1540 H 2402 A 6 6 0 0 0 2414 1540 H 2616 A 8 8 0 0 1 2624 1548 V 2034 A 8 8 0 0 1 2616 2042 H 2412" class="dv-edge">
</path>
<polygon points="2292,1540 2282,1535 2282,1545" class="dv-marker dv-marker-many">
</polygon>
<polygon points="2412,2042 2403,2038 2403,2046" class="dv-arrow">
</polygon>
</g>
<g class="dv-edge-group" data-edge-id="6" data-from-table="shop.categories" data-to-table="shop.categories" data-from-column="shop.categories.parent_id" data-to-column="shop.categories.id">
<path d="M 1830 274 H 1870 A 8 8 0 0 0 1878 266 V 256 A 8 8 0 0 0 1870 248 H 1830" class="dv-edge-hit">
</path>
<path d="M 1830 274 H 1870 A 8 8 0 0 0 1878 266 V 256 A 8 8 0 0 0 1870 248 H 1830" class="dv-edge">
</path>
<polygon points="1830,274 1820,269 1820,279" class="dv-marker dv-marker-many">
</polygon>
<polygon points="1830,248 1839,244 1839,252" class="dv-arrow">
</polygon>
</g>
<g class="dv-edge-group" data-edge-id="7" data-from-table="shop.products" data-to-table="shop.categories" data-from-column="shop.products.category_id" data-to-column="shop.categories.id">
<path d="M 1610 236 H 1613 A 3 3 0 0 1 1616 239 V 242 A 6 6 0 0 0 1622 248 H 1630" class="dv-edge-hit">
</path>
<path d="M 1610 236 H 1613 A 3 3 0 0 1 1616 239 V 242 A 6 6 0 0 0 1622 248 H 1630" class="dv-edge">
</path>
<polygon points="1610,236 1600,231 1600,241" class="dv-marker dv-marker-many">
</polygon>
<polygon points="1630,248 1621,244 1621,252" class="dv-arrow">
</polygon>
</g>
<g class="dv-edge-group" data-edge-id="8" data-from-table="shop.product_variants" data-to-table="shop.products" data-from-column="shop.product_variants.product_id" data-to-column="shop.products.id">
<path d="M 1390 220 H 1357 A 5 5 0 0 1 1352 215 V 215 A 5 5 0 0 1 1357 210 H 1410" class="dv-edge-hit">
</path>
<path d="M 1390 220 H 1357 A 5 5 0 0 1 1352 215 V 215 A 5 5 0 0 1 1357 210 H 1410" class="dv-edge">
</path>
<polygon points="1390,220 1380,215 1380,225" class="dv-marker dv-marker-many">
</polygon>
<polygon points="1410,210 1401,206 1401,214" class="dv-arrow">
</polygon>
</g>
<g class="dv-edge-group" data-edge-id="9" data-from-table="shop.prices" data-to-table="shop.product_variants" data-from-column="shop.prices.variant_id" data-to-column="shop.product_variants.id">
<path d="M 1150 417 H 1155 A 5 5 0 0 0 1160 412 V 202 A 8 8 0 0 1 1168 194 H 1190" class="dv-edge-hit">
</path>
<path d="M 1150 417 H 1155 A 5 5 0 0 0 1160 412 V 202 A 8 8 0 0 1 1168 194 H 1190" class="dv-edge">
</path>
<polygon points="1150,417 1140,412 1140,422" class="dv-marker dv-marker-many">
</polygon>
<polygon points="1190,194 1181,190 1181,198" class="dv-arrow">
</polygon>
</g>
<g class="dv-edge-group" data-edge-id="10" data-from-table="shop.product_images" data-to-table="shop.product_variants" data-from-column="shop.product_images.variant_id" data-to-column="shop.product_variants.id">
<path d="M 1150 144 H 1120 A 8 8 0 0 0 1112 152 V 186 A 8 8 0 0 0 1120 194 H 1190" class="dv-edge-hit">
</path>
<path d="M 1150 144 H 1120 A 8 8 0 0 0 1112 152 V 186 A 8 8 0 0 0 1120 194 H 1190" class="dv-edge">
</path>
<polygon points="1150,144 1140,139 1140,149" class="dv-marker dv-marker-many">
</polygon>
<polygon points="1190,194 1181,190 1181,198" class="dv-arrow">
</polygon>
</g>
<g class="dv-edge-group" data-edge-id="11" data-from-table="shop.addresses" data-to-table="auth.users" data-from-column="shop.addresses.user_id" data-to-column="auth.users.id">
<path d="M 1610 600 H 1850 A 6 6 0 0 0 1862 600 H 1992 A 8 8 0 0 1 2000 608 V 2034 A 8 8 0 0 0 2008 2042 H 2412" class="dv-edge-hit">
</path>
<path d="M 1610 600 H 1850 A 6 6 0 0 0 1862 600 H 1992 A 8 8 0 0 1 2000 608 V 2034 A 8 8 0 0 0 2008 2042 H 2412" class="dv-edge">
</path>
<polygon points="1610,600 1600,595 1600,605" class="dv-marker dv-marker-many">
</polygon>
<polygon points="2412,2042 2403,2038 2403,2046" class="dv-arrow">
</polygon>
</g>
<g class="dv-edge-group" data-edge-id="12" data-from-table="shop.orders" data-to-table="shop.coupons" data-from-column="shop.orders.coupon_id" data-to-column="shop.coupons.id">
<path d="M 1390 750 H 1395 A 5 5 0 0 1 1400 755 V 1033 A 5 5 0 0 0 1405 1038 H 1410" class="dv-edge-hit">
</path>
<path d="M 1390 750 H 1395 A 5 5 0 0 1 1400 755 V 1033 A 5 5 0 0 0 1405 1038 H 1410" class="dv-edge">
</path>
<polygon points="1390,750 1380,745 1380,755" class="dv-marker dv-marker-many">
</polygon>
<polygon points="1410,1038 1401,1034 1401,1042" class="dv-arrow">
</polygon>
</g>
<g class="dv-edge-group" data-edge-id="13" data-from-table="shop.coupon_usages" data-to-table="shop.coupons" data-from-column="shop.coupon_usages.coupon_id" data-to-column="shop.coupons.id">
<path d="M 1150 1157 H 1226 A 6 6 0 0 0 1238 1157 H 1272 A 8 8 0 0 0 1280 1149 V 1046 A 8 8 0 0 1 1288 1038 H 1410" class="dv-edge-hit">
</path>
<path d="M 1150 1157 H 1226 A 6 6 0 0 0 1238 1157 H 1272 A 8 8 0 0 0 1280 1149 V 1046 A 8 8 0 0 1 1288 1038 H 1410" class="dv-edge">
</path>
<polygon points="1150,1157 1140,1152 1140,1162" class="dv-marker dv-marker-many">
</polygon>
<polygon points="1410,1038 1401,1034 1401,1042" class="dv-arrow">
</polygon>
</g>
<g class="dv-edge-group" data-edge-id="14" data-from-table="shop.coupon_usages" data-to-table="shop.orders" data-from-column="shop.coupon_usages.order_id" data-to-column="shop.orders.id">
<path d="M 1150 1183 H 1224 A 8 8 0 0 0 1232 1175 V 656 A 8 8 0 0 0 1224 648 H 1190" class="dv-edge-hit">
</path>
<path d="M 1150 1183 H 1224 A 8 8 0 0 0 1232 1175 V 656 A 8 8 0 0 0 1224 648 H 1190" class="dv-edge">
</path>
<polygon points="1150,1183 1140,1178 1140,1188" class="dv-marker dv-marker-many">
</polygon>
<polygon points="1190,648 1181,644 1181,652" class="dv-arrow">
</polygon>
</g>
<g class="dv-edge-group" data-edge-id="15" data-from-table="shop.orders" data-to-table="auth.users" data-from-column="shop.orders.user_id" data-to-column="auth.users.id">
<path d="M 1390 674 H 1394 A 6 6 0 0 0 1406 674 H 1442 A 6 6 0 0 0 1454 674 H 1850 A 6 6 0 0 0 1862 674 H 1896 A 8 8 0 0 1 1904 682 V 2034 A 8 8 0 0 0 1912 2042 H 2412" class="dv-edge-hit">
</path>
<path d="M 1390 674 H 1394 A 6 6 0 0 0 1406 674 H 1442 A 6 6 0 0 0 1454 674 H 1850 A 6 6 0 0 0 1862 674 H 1896 A 8 8 0 0 1 1904 682 V 2034 A 8 8 0 0 0 1912 2042 H 2412" class="dv-edge">
</path>
<polygon points="1390,674 1380,669 1380,679" class="dv-marker dv-marker-many">
</polygon>
<polygon points="2412,2042 2403,2038 2403,2046" class="dv-arrow">
</polygon>
</g>
<g class="dv-edge-group" data-edge-id="16" data-from-table="shop.orders" data-to-table="shop.addresses" data-from-column="shop.orders.shipping_address_id" data-to-column="shop.addresses.id">
<path d="M 1390 699 H 1395 A 5 5 0 0 0 1400 694 V 579 A 5 5 0 0 1 1405 574 H 1410" class="dv-edge-hit">
</path>
<path d="M 1390 699 H 1395 A 5 5 0 0 0 1400 694 V 579 A 5 5 0 0 1 1405 574 H 1410" class="dv-edge">
</path>
<polygon points="1390,699 1380,694 1380,704" class="dv-marker dv-marker-many">
</polygon>
<polygon points="1410,574 1401,570 1401,578" class="dv-arrow">
</polygon>
</g>
<g class="dv-edge-group" data-edge-id="17" data-from-table="shop.orders" data-to-table="shop.addresses" data-from-column="shop.orders.billing_address_id" data-to-column="shop.addresses.id">
<path d="M 1390 725 H 1440 A 8 8 0 0 0 1448 717 V 582 A 8 8 0 0 0 1440 574 H 1410" class="dv-edge-hit">
</path>
<path d="M 1390 725 H 1440 A 8 8 0 0 0 1448 717 V 582 A 8 8 0 0 0 1440 574 H 1410" class="dv-edge">
</path>
<polygon points="1390,725 1380,720 1380,730" class="dv-marker dv-marker-many">
</polygon>
<polygon points="1410,574 1401,570 1401,578" class="dv-arrow">
</polygon>
</g>
<g class="dv-edge-group" data-edge-id="18" data-from-table="shop.order_items" data-to-table="shop.orders" data-from-column="shop.order_items.order_id" data-to-column="shop.orders.id">
<path d="M 1150 612 H 1176 A 8 8 0 0 1 1184 620 V 645 A 3 3 0 0 0 1187 648 H 1190" class="dv-edge-hit">
</path>
<path d="M 1150 612 H 1176 A 8 8 0 0 1 1184 620 V 645 A 3 3 0 0 0 1187 648 H 1190" class="dv-edge">
</path>
<polygon points="1150,612 1140,607 1140,617" class="dv-marker dv-marker-many">
</polygon>
<polygon points="1190,648 1181,644 1181,652" class="dv-arrow">
</polygon>
</g>
<g class="dv-edge-group" data-edge-id="19" data-from-table="shop.order_items" data-to-table="shop.product_variants" data-from-column="shop.order_items.variant_id" data-to-column="shop.product_variants.id">
<path d="M 1150 638 H 1120 A 8 8 0 0 1 1112 630 V 202 A 8 8 0 0 1 1120 194 H 1190" class="dv-edge-hit">
</path>
<path d="M 1150 638 H 1120 A 8 8 0 0 1 1112 630 V 202 A 8 8 0 0 1 1120 194 H 1190" class="dv-edge">
</path>
<polygon points="1150,638 1140,633 1140,643" class="dv-marker dv-marker-many">
</polygon>
<polygon points="1190,194 1181,190 1181,198" class="dv-arrow">
</polygon>
</g>
<g class="dv-edge-group" data-edge-id="20" data-from-table="shop.payments" data-to-table="shop.orders" data-from-column="shop.payments.order_id" data-to-column="shop.orders.id">
<path d="M 1150 833 H 1176 A 8 8 0 0 0 1184 825 V 651 A 3 3 0 0 1 1187 648 H 1190" class="dv-edge-hit">
</path>
<path d="M 1150 833 H 1176 A 8 8 0 0 0 1184 825 V 651 A 3 3 0 0 1 1187 648 H 1190" class="dv-edge">
</path>
<polygon points="1150,833 1140,828 1140,838" class="dv-marker dv-marker-many">
</polygon>
<polygon points="1190,648 1181,644 1181,652" class="dv-arrow">
</polygon>
</g>
<g class="dv-edge-group" data-edge-id="21" data-from-table="shop.wishlist_items" data-to-table="auth.users" data-from-column="shop.wishlist_items.user_id" data-to-column="auth.users.id">
<path d="M 1390 466 H 1394 A 6 6 0 0 0 1406 466 H 1848 A 8 8 0 0 1 1856 474 V 2034 A 8 8 0 0 0 1864 2042 H 2412" class="dv-edge-hit">
</path>
<path d="M 1390 466 H 1394 A 6 6 0 0 0 1406 466 H 1848 A 8 8 0 0 1 1856 474 V 2034 A 8 8 0 0 0 1864 2042 H 2412" class="dv-edge">
</path>
<polygon points="1390,466 1380,461 1380,471" class="dv-marker dv-marker-many">
</polygon>
<polygon points="2412,2042 2403,2038 2403,2046" class="dv-arrow">
</polygon>
</g>
<g class="dv-edge-group" data-edge-id="22" data-from-table="shop.wishlist_items" data-to-table="shop.products" data-from-column="shop.wishlist_items.product_id" data-to-column="shop.products.id">
<path d="M 1390 492 H 1395 A 5 5 0 0 0 1400 487 V 215 A 5 5 0 0 1 1405 210 H 1410" class="dv-edge-hit">
</path>
<path d="M 1390 492 H 1395 A 5 5 0 0 0 1400 487 V 215 A 5 5 0 0 1 1405 210 H 1410" class="dv-edge">
</path>
<polygon points="1390,492 1380,487 1380,497" class="dv-marker dv-marker-many">
</polygon>
<polygon points="1410,210 1401,206 1401,214" class="dv-arrow">
</polygon>
</g>
<g class="dv-edge-group" data-edge-id="23" data-from-table="auth.users" data-to-table="cms.authors" data-from-column="auth.users.id" data-to-column="cms.authors.id">
<path d="M 2412 2042 H 2128 A 8 8 0 0 1 2120 2034 V 1453 A 8 8 0 0 0 2112 1445 H 2006 A 6 6 0 0 1 1994 1445 H 1910 A 6 6 0 0 1 1898 1445 H 1862 A 6 6 0 0 1 1850 1445 H 1830" class="dv-edge-hit">
</path>
<path d="M 2412 2042 H 2128 A 8 8 0 0 1 2120 2034 V 1453 A 8 8 0 0 0 2112 1445 H 2006 A 6 6 0 0 1 1994 1445 H 1910 A 6 6 0 0 1 1898 1445 H 1862 A 6 6 0 0 1 1850 1445 H 1830" class="dv-edge">
</path>
<circle cx="2417" cy="2042" r="3" class="dv-marker dv-marker-one">
</circle>
<polygon points="1830,1445 1839,1441 1839,1449" class="dv-arrow">
</polygon>
</g>
<g class="dv-edge-group" data-edge-id="24" data-from-table="cms.posts" data-to-table="cms.authors" data-from-column="cms.posts.author_id" data-to-column="cms.authors.id">
<path d="M 1610 1676 H 1632 A 8 8 0 0 0 1640 1668 V 1450 A 5 5 0 0 0 1635 1445 H 1630" class="dv-edge-hit">
</path>
<path d="M 1610 1676 H 1632 A 8 8 0 0 0 1640 1668 V 1450 A 5 5 0 0 0 1635 1445 H 1630" class="dv-edge">
</path>
<polygon points="1610,1676 1600,1671 1600,1681" class="dv-marker dv-marker-many">
</polygon>
<polygon points="1630,1445 1621,1441 1621,1449" class="dv-arrow">
</polygon>
</g>
<g class="dv-edge-group" data-edge-id="25" data-from-table="cms.post_revisions" data-to-table="cms.posts" data-from-column="cms.post_revisions.post_id" data-to-column="cms.posts.id">
<path d="M 1380 1765 H 1392 A 8 8 0 0 0 1400 1757 V 1655 A 5 5 0 0 1 1405 1650 H 1410" class="dv-edge-hit">
</path>
<path d="M 1380 1765 H 1392 A 8 8 0 0 0 1400 1757 V 1655 A 5 5 0 0 1 1405 1650 H 1410" class="dv-edge">
</path>
<polygon points="1380,1765 1370,1760 1370,1770" class="dv-marker dv-marker-many">
</polygon>
<polygon points="1410,1650 1401,1646 1401,1654" class="dv-arrow">
</polygon>
</g>
<g class="dv-edge-group" data-edge-id="26" data-from-table="cms.post_revisions" data-to-table="auth.users" data-from-column="cms.post_revisions.editor_id" data-to-column="auth.users.id">
<path d="M 1380 1790 H 1442 A 6 6 0 0 0 1454 1790 H 1850 A 6 6 0 0 0 1862 1790 H 1898 A 6 6 0 0 0 1910 1790 H 1944 A 8 8 0 0 1 1952 1798 V 2034 A 8 8 0 0 0 1960 2042 H 2412" class="dv-edge-hit">
</path>
<path d="M 1380 1790 H 1442 A 6 6 0 0 0 1454 1790 H 1850 A 6 6 0 0 0 1862 1790 H 1898 A 6 6 0 0 0 1910 1790 H 1944 A 8 8 0 0 1 1952 1798 V 2034 A 8 8 0 0 0 1960 2042 H 2412" class="dv-edge">
</path>
<polygon points="1380,1790 1370,1785 1370,1795" class="dv-marker dv-marker-many">
</polygon>
<polygon points="2412,2042 2403,2038 2403,2046" class="dv-arrow">
</polygon>
</g>
<g class="dv-edge-group" data-edge-id="27" data-from-table="cms.post_tags" data-to-table="cms.posts" data-from-column="cms.post_tags.post_id" data-to-column="cms.posts.id">
<path d="M 1380 1535 H 1378 A 2 2 0 0 0 1376 1537 V 1642 A 8 8 0 0 0 1384 1650 H 1410" class="dv-edge-hit">
</path>
<path d="M 1380 1535 H 1378 A 2 2 0 0 0 1376 1537 V 1642 A 8 8 0 0 0 1384 1650 H 1410" class="dv-edge">
</path>
<polygon points="1380,1535 1370,1530 1370,1540" class="dv-marker dv-marker-many">
</polygon>
<polygon points="1410,1650 1401,1646 1401,1654" class="dv-arrow">
</polygon>
</g>
<g class="dv-edge-group" data-edge-id="28" data-from-table="cms.post_tags" data-to-table="cms.tags" data-from-column="cms.post_tags.tag_id" data-to-column="cms.tags.id">
<path d="M 1380 1561 H 1336 A 8 8 0 0 1 1328 1553 V 1514 A 8 8 0 0 1 1336 1506 H 1410" class="dv-edge-hit">
</path>
<path d="M 1380 1561 H 1336 A 8 8 0 0 1 1328 1553 V 1514 A 8 8 0 0 1 1336 1506 H 1410" class="dv-edge">
</path>
<polygon points="1380,1561 1370,1556 1370,1566" class="dv-marker dv-marker-many">
</polygon>
<polygon points="1410,1506 1401,1502 1401,1510" class="dv-arrow">
</polygon>
</g>
<g class="dv-edge-group" data-edge-id="29" data-from-table="cms.comments" data-to-table="cms.posts" data-from-column="cms.comments.post_id" data-to-column="cms.posts.id">
<path d="M 1380 2011 H 1422 A 6 6 0 0 0 1434 2011 H 1440 A 8 8 0 0 0 1448 2003 V 1658 A 8 8 0 0 0 1440 1650 H 1410" class="dv-edge-hit">
</path>
<path d="M 1380 2011 H 1422 A 6 6 0 0 0 1434 2011 H 1440 A 8 8 0 0 0 1448 2003 V 1658 A 8 8 0 0 0 1440 1650 H 1410" class="dv-edge">
</path>
<polygon points="1380,2011 1370,2006 1370,2016" class="dv-marker dv-marker-many">
</polygon>
<polygon points="1410,1650 1401,1646 1401,1654" class="dv-arrow">
</polygon>
</g>
<g class="dv-edge-group" data-edge-id="30" data-from-table="cms.comments" data-to-table="cms.comments" data-from-column="cms.comments.parent_id" data-to-column="cms.comments.id">
<path d="M 1380 2036 H 1420 A 8 8 0 0 0 1428 2028 V 1993 A 8 8 0 0 0 1420 1985 H 1380" class="dv-edge-hit">
</path>
<path d="M 1380 2036 H 1420 A 8 8 0 0 0 1428 2028 V 1993 A 8 8 0 0 0 1420 1985 H 1380" class="dv-edge">
</path>
<polygon points="1380,2036 1370,2031 1370,2041" class="dv-marker dv-marker-many">
</polygon>
<polygon points="1380,1985 1389,1981 1389,1989" class="dv-arrow">
</polygon>
</g>
<g class="dv-edge-group" data-edge-id="31" data-from-table="cms.comments" data-to-table="auth.users" data-from-column="cms.comments.author_id" data-to-column="auth.users.id">
<path d="M 1380 2062 H 1896 A 8 8 0 0 0 1904 2054 V 2050 A 8 8 0 0 1 1912 2042 H 2412" class="dv-edge-hit">
</path>
<path d="M 1380 2062 H 1896 A 8 8 0 0 0 1904 2054 V 2050 A 8 8 0 0 1 1912 2042 H 2412" class="dv-edge">
</path>
<polygon points="1380,2062 1370,2057 1370,2067" class="dv-marker dv-marker-many">
</polygon>
<polygon points="2412,2042 2403,2038 2403,2046" class="dv-arrow">
</polygon>
</g>
<g class="dv-edge-group" data-edge-id="32" data-from-table="cms.media" data-to-table="auth.users" data-from-column="cms.media.uploader_id" data-to-column="auth.users.id">
<path d="M 1830 1640 H 1850 A 6 6 0 0 0 1862 1640 H 1898 A 6 6 0 0 0 1910 1640 H 1994 A 6 6 0 0 0 2006 1640 H 2064 A 8 8 0 0 1 2072 1648 V 2034 A 8 8 0 0 0 2080 2042 H 2412" class="dv-edge-hit">
</path>
<path d="M 1830 1640 H 1850 A 6 6 0 0 0 1862 1640 H 1898 A 6 6 0 0 0 1910 1640 H 1994 A 6 6 0 0 0 2006 1640 H 2064 A 8 8 0 0 1 2072 1648 V 2034 A 8 8 0 0 0 2080 2042 H 2412" class="dv-edge">
</path>
<polygon points="1830,1640 1820,1635 1820,1645" class="dv-marker dv-marker-many">
</polygon>
<polygon points="2412,2042 2403,2038 2403,2046" class="dv-arrow">
</polygon>
</g>
<g class="dv-edge-group" data-edge-id="33" data-from-table="logistics.inventory" data-to-table="logistics.warehouses" data-from-column="logistics.inventory.warehouse_id" data-to-column="logistics.warehouses.id">
<path d="M 468 833 H 466 A 2 2 0 0 0 464 835 V 927 A 8 8 0 0 0 472 935 H 488" class="dv-edge-hit">
</path>
<path d="M 468 833 H 466 A 2 2 0 0 0 464 835 V 927 A 8 8 0 0 0 472 935 H 488" class="dv-edge">
</path>
<polygon points="468,833 458,828 458,838" class="dv-marker dv-marker-many">
</polygon>
<polygon points="488,935 479,931 479,939" class="dv-arrow">
</polygon>
</g>
<g class="dv-edge-group" data-edge-id="34" data-from-table="logistics.inventory" data-to-table="shop.product_variants" data-from-column="logistics.inventory.variant_id" data-to-column="shop.product_variants.id">
<path d="M 468 859 H 816 A 8 8 0 0 0 824 851 V 202 A 8 8 0 0 1 832 194 H 1190" class="dv-edge-hit">
</path>
<path d="M 468 859 H 816 A 8 8 0 0 0 824 851 V 202 A 8 8 0 0 1 832 194 H 1190" class="dv-edge">
</path>
<polygon points="468,859 458,854 458,864" class="dv-marker dv-marker-many">
</polygon>
<polygon points="1190,194 1181,190 1181,198" class="dv-arrow">
</polygon>
</g>
<g class="dv-edge-group" data-edge-id="35" data-from-table="logistics.shipments" data-to-table="shop.orders" data-from-column="logistics.shipments.order_id" data-to-column="shop.orders.id">
<path d="M 468 1053 H 482 A 6 6 0 0 0 494 1053 H 864 A 8 8 0 0 0 872 1045 V 656 A 8 8 0 0 1 880 648 H 1190" class="dv-edge-hit">
</path>
<path d="M 468 1053 H 482 A 6 6 0 0 0 494 1053 H 864 A 8 8 0 0 0 872 1045 V 656 A 8 8 0 0 1 880 648 H 1190" class="dv-edge">
</path>
<polygon points="468,1053 458,1048 458,1058" class="dv-marker dv-marker-many">
</polygon>
<polygon points="1190,648 1181,644 1181,652" class="dv-arrow">
</polygon>
</g>
<g class="dv-edge-group" data-edge-id="36" data-from-table="logistics.shipments" data-to-table="logistics.warehouses" data-from-column="logistics.shipments.warehouse_id" data-to-column="logistics.warehouses.id">
<path d="M 468 1079 H 480 A 8 8 0 0 0 488 1071 V 935" class="dv-edge-hit">
</path>
<path d="M 468 1079 H 480 A 8 8 0 0 0 488 1071 V 935" class="dv-edge">
</path>
<polygon points="468,1079 458,1074 458,1084" class="dv-marker dv-marker-many">
</polygon>
<polygon points="488,935 479,931 479,939" class="dv-arrow">
</polygon>
</g>
<g class="dv-edge-group" data-edge-id="37" data-from-table="logistics.shipment_events" data-to-table="logistics.shipments" data-from-column="logistics.shipment_events.carrier" data-to-column="logistics.shipments.carrier">
<path d="M 248 1002 H 268" class="dv-edge-hit">
</path>
<path d="M 248 1002 H 268" class="dv-edge">
</path>
<polygon points="248,1002 238,997 238,1007" class="dv-marker dv-marker-many">
</polygon>
<polygon points="268,1002 259,998 259,1006" class="dv-arrow">
</polygon>
</g>
<g class="dv-edge-group" data-edge-id="38" data-from-table="analytics.page_views" data-to-table="auth.users" data-from-column="analytics.page_views.user_id" data-to-column="auth.users.id">
<path d="M 1830 2392 H 2304 A 8 8 0 0 0 2312 2384 V 2050 A 8 8 0 0 1 2320 2042 H 2412" class="dv-edge-hit">
</path>
<path d="M 1830 2392 H 2304 A 8 8 0 0 0 2312 2384 V 2050 A 8 8 0 0 1 2320 2042 H 2412" class="dv-edge">
</path>
<polygon points="1830,2392 1820,2387 1820,2397" class="dv-marker dv-marker-many">
</polygon>
<polygon points="2412,2042 2403,2038 2403,2046" class="dv-arrow">
</polygon>
</g>
<g class="dv-edge-group" data-edge-id="39" data-from-table="analytics.events" data-to-table="auth.users" data-from-column="analytics.events.user_id" data-to-column="auth.users.id">
<path d="M 1830 2638 H 2352 A 8 8 0 0 0 2360 2630 V 2050 A 8 8 0 0 1 2368 2042 H 2412" class="dv-edge-hit">
</path>
<path d="M 1830 2638 H 2352 A 8 8 0 0 0 2360 2630 V 2050 A 8 8 0 0 1 2368 2042 H 2412" class="dv-edge">
</path>
<polygon points="1830,2638 1820,2633 1820,2643" class="dv-marker dv-marker-many">
</polygon>
<polygon points="2412,2042 2403,2038 2403,2046" class="dv-arrow">
</polygon>
</g>
</svg>